<?xml version="1.0" encoding="utf-8"?>
<!-- Generator: Adobe Illustrator 22.1.0, SVG Export Plug-In . SVG Version: 6.00 Build 0)  -->
<svg version="1.1" id="Calque_1" xmlns="http://www.w3.org/2000/svg" xmlns:xlink="http://www.w3.org/1999/xlink" x="0px" y="0px"
	 viewBox="0 0 160 109" style="enable-background:new 0 0 160 109;" xml:space="preserve">
<style type="text/css">
	.st0{fill:#FFFFFF;}
</style>
<g id="contact_form_2_">
	<g>
		<path class="st0" d="M91.7,38.6c0-1.2-0.9-2.4-2.4-2.4c-1.2,0-2.4,0.9-2.4,2.4c0,1.2,0.9,2.4,2.4,2.4
			C90.7,40.7,91.7,39.7,91.7,38.6z"/>
		<path class="st0" d="M97.4,40.7c1.2,0,2.4-0.9,2.4-2.4c0-1.2-0.9-2.4-2.4-2.4c-1.2,0-2.4,0.9-2.4,2.4
			C95.2,39.7,96.2,40.7,97.4,40.7z"/>
		<path class="st0" d="M105.4,40.7c1.2,0,2.4-0.9,2.4-2.4c0-1.2-0.9-2.4-2.4-2.4c-1.2,0-2.4,0.9-2.4,2.4
			C103.1,39.7,104.2,40.7,105.4,40.7z"/>
		<path class="st0" d="M141.9,54.4H91.7c-0.7,0-1.2,0.5-1.2,1.2c0,0.7,0.5,1.2,1.2,1.2h50.3c0.7,0,1.2-0.5,1.2-1.2
			C143.1,54.9,142.6,54.4,141.9,54.4z"/>
		<path class="st0" d="M115.6,62.5H91.7c-0.7,0-1.2,0.5-1.2,1.2s0.5,1.2,1.2,1.2h23.9c0.7,0,1.2-0.5,1.2-1.2S116.3,62.5,115.6,62.5z
			"/>
	</g>
	<path class="st0" d="M147.6,30.5H86c-3.1,0-5.7,2.6-5.7,5.7v8.1v2.4V90c0,3.1,2.6,5.7,5.7,5.7h48.8l-1.9-2.4H86
		c-1.9,0-3.3-1.4-3.3-3.3V46.6h68.5v42l2.4,2.8V46.9v-2.4v-8.1C153.3,33.1,150.7,30.5,147.6,30.5z M150.9,44.3H82.7v-8.1
		c0-1.9,1.4-3.3,3.3-3.3h61.6c1.9,0,3.3,1.4,3.3,3.3C150.9,36.2,150.9,44.3,150.9,44.3z"/>
	<path class="st0" d="M152.1,95.2l-22-26.8c0-0.2-0.2-0.2-0.5-0.2l-8.5-4c-0.5-0.2-0.9-0.2-1.2,0.2c-0.2,0.2-0.5,0.7-0.5,1.2
		l2.4,9.2c0,0.2,0.2,0.2,0.2,0.5l18.3,22l0,0l0,0l4,4.7c0.9,1.2,2.4,1.9,4,1.9c1.2,0,2.4-0.5,3.3-1.2c0.9-0.9,1.7-2.1,1.9-3.6
		C153.3,97.6,153.1,96.2,152.1,95.2z M150,100.7c-1.2,0.9-3.1,0.7-4-0.5l-3.3-4l1.9-1.7c0.5-0.5,0.5-1.2,0.2-1.7
		c-0.5-0.5-1.2-0.5-1.7-0.2l-1.9,1.7l-17.3-20.9l-1.7-6.6l6.2,2.8l22,26.6c0.5,0.5,0.7,1.4,0.7,2.1
		C150.9,99.5,150.5,100.2,150,100.7z"/>
</g>
<g id="valoration_test_2_">
	<g>
		<path class="st0" d="M77,14.4H66.5c0,0.5,0,0.7,0,1.2v1.2h10.2c1.9,0,3.3,1.4,3.3,3.3v50.3c0,1.9-1.4,3.3-3.3,3.3H15.1
			c-1.9,0-3.3-1.4-3.3-3.3V20.1c0-1.9,1.4-3.3,3.3-3.3h10.2v-1.2c0-0.5,0-0.7,0-1.2H14.9c-3.1,0-5.7,2.6-5.7,5.7v50.3
			c0,3.1,2.6,5.7,5.7,5.7h61.6c3.1,0,5.7-2.6,5.7-5.7V20.1C82.7,17,80.1,14.4,77,14.4z"/>
		<path class="st0" d="M62,20.1H30c-0.7,0-1.2-0.5-1.2-1.2v-3.3c0-2.6,2.1-4.5,4.5-4.5h2.4V4.2c0-0.7,0.5-1.2,1.2-1.2h18.3
			c0.7,0,1.2,0.5,1.2,1.2v6.9h2.4c2.6,0,4.5,2.1,4.5,4.5v3.3C63.2,19.6,62.7,20.1,62,20.1z M31.2,17.9h29.6v-2.4
			c0-1.2-0.9-2.4-2.4-2.4h-3.3c-0.7,0-1.2-0.5-1.2-1.2V5.1H38.1V12c0,0.7-0.5,1.2-1.2,1.2h-3.3c-1.2,0-2.4,0.9-2.4,2.4V17.9z"/>
		<path class="st0" d="M50.7,13.2h-9.2c-0.7,0-1.2-0.5-1.2-1.2v-1.7c0-1.7,1.2-2.8,2.8-2.8h5.7c1.7,0,2.8,1.2,2.8,2.8V12
			C51.8,12.7,51.4,13.2,50.7,13.2z M42.6,11.1h6.9v-0.5c0-0.2-0.2-0.5-0.5-0.5h-5.7c-0.2,0-0.5,0.2-0.5,0.5v0.5H42.6z"/>
	</g>
	<g>
		<path class="st0" d="M71,41.6H43.3c-0.7,0-1.2-0.5-1.2-1.2c0-0.7,0.5-1.2,1.2-1.2H71c0.7,0,1.2,0.5,1.2,1.2
			C72.2,40.9,71.8,41.6,71,41.6z"/>
		<path class="st0" d="M62,35.2H43.3c-0.7,0-1.2-0.5-1.2-1.2c0-0.7,0.5-1.2,1.2-1.2H62c0.7,0,1.2,0.5,1.2,1.2
			C63,34.8,62.5,35.2,62,35.2z"/>
		<path class="st0" d="M34.1,36.7v3.6c0,0.2,0,0.2-0.2,0.2h-2.6h-7.8h-0.5c-0.2,0-0.2,0-0.2-0.2v-0.9v-9.5v-0.5c0-0.2,0-0.2,0.2-0.2
			h2.1h3.3l1.7-2.4h-7.1c-1.4,0-2.6,1.2-2.6,2.6v10.9c0,1.4,1.2,2.6,2.6,2.6h4.3h6.6c1.4,0,2.6-1.2,2.6-2.6v-6.6L34.1,36.7z"/>
		<path class="st0" d="M27.4,39.3C27.2,39.3,27.2,39.3,27.4,39.3c-0.5,0-0.9-0.2-0.9-0.7l-2.4-4.5c-0.2-0.5,0-1.2,0.5-1.4
			s1.2,0,1.4,0.5l1.4,2.8l5.7-7.6c0.5-0.5,1.2-0.7,1.7-0.2c0.5,0.5,0.7,1.2,0.2,1.7l-6.9,9C28.1,39,27.7,39.3,27.4,39.3z"/>
	</g>
	<g>
		<path class="st0" d="M71,64.4H43.3c-0.7,0-1.2-0.5-1.2-1.2c0-0.7,0.5-1.2,1.2-1.2H71c0.7,0,1.2,0.5,1.2,1.2
			C72.2,63.9,71.8,64.4,71,64.4z"/>
		<path class="st0" d="M62,58H43.3c-0.7,0-1.2-0.5-1.2-1.2c0-0.7,0.5-1.2,1.2-1.2H62c0.7,0,1.2,0.5,1.2,1.2C63,57.5,62.5,58,62,58z"
			/>
		<path class="st0" d="M34.1,59.9v3.6c0,0.2,0,0.2-0.2,0.2h-2.6h-7.8h-0.5c-0.2,0-0.2,0-0.2-0.2v-0.9V53v-0.5c0-0.2,0-0.2,0.2-0.2
			h2.1h3.3l1.7-2.4h-7.1c-1.4,0-2.6,1.2-2.6,2.6v10.9c0,1.4,1.2,2.6,2.6,2.6h4.3h6.6c1.4,0,2.6-1.2,2.6-2.6v-6.6L34.1,59.9z"/>
		<path class="st0" d="M27.4,62.5C27.2,62.5,27.2,62.5,27.4,62.5c-0.5,0-0.9-0.2-0.9-0.7l-2.4-4.5c-0.2-0.5,0-1.2,0.5-1.4
			c0.5-0.2,1.2,0,1.4,0.5l1.4,2.8l5.7-7.6c0.5-0.5,1.2-0.7,1.7-0.2c0.5,0.5,0.7,1.2,0.2,1.7l-6.9,9C28.1,62.3,27.7,62.5,27.4,62.5z"
			/>
	</g>
</g>
</svg>
