<?xml version="1.0" encoding="utf-8"?>
<!-- Generator: Adobe Illustrator 22.1.0, SVG Export Plug-In . SVG Version: 6.00 Build 0)  -->
<svg version="1.1" id="Calque_1" xmlns="http://www.w3.org/2000/svg" xmlns:xlink="http://www.w3.org/1999/xlink" x="0px" y="0px"
	 viewBox="0 0 64 73" style="enable-background:new 0 0 64 73;" xml:space="preserve">
<style type="text/css">
	.st0{display:none;}
	.st1{display:inline;}
	.st2{fill:#016A69;}
	.st3{display:inline;fill:#016A69;}
	.st4{display:inline;fill:none;stroke:#016A69;stroke-width:2;stroke-linecap:round;stroke-linejoin:round;stroke-miterlimit:10;}
	.st5{fill:none;stroke:#016A69;stroke-width:2;stroke-linecap:round;stroke-linejoin:round;stroke-miterlimit:10;}
</style>
<g id="notebook_1_" class="st0">
	<g class="st1">
		<path class="st2" d="M49.9,23.7H39.6c-2.8,0-5.1-2.3-5.1-5.1V8.2c0-0.5,0.4-0.9,0.9-0.9c0.5,0,0.9,0.4,0.9,0.9v10.4
			c0,1.8,1.5,3.3,3.2,3.3h10.4c0.5,0,0.9,0.4,0.9,0.9C50.8,23.3,50.4,23.7,49.9,23.7z"/>
	</g>
	<g id="pen_3_" class="st1">
		<g>
			<path class="st2" d="M44.9,47.8c-0.2,0-0.5-0.1-0.6-0.3l-6-6.1c-0.4-0.4-0.4-0.9,0-1.3l11.6-11.6c2.2-2.2,5.4-2.2,7.5-0.1
				c2.2,2.2,2.1,5.3-0.1,7.5L45.5,47.6C45.4,47.8,45.1,47.8,44.9,47.8z M40.2,40.9l4.7,4.8l11-10.9c1.2-1.2,1.9-3.1,0.1-4.9
				c-1.4-1.4-3.4-1.4-4.9,0.1L40.2,40.9z"/>
		</g>
		<g>
			<path class="st2" d="M33.7,57.6c-0.3-0.1-0.5-0.1-0.6-0.3l-4.7-4.7c-0.4-0.4-0.4-0.9,0-1.3l10.6-10.5c0.2-0.2,0.4-0.3,0.6-0.3
				c0.2,0,0.5,0.1,0.6,0.3l4.7,4.7c0.4,0.4,0.4,0.9,0,1.3L34.3,57.4C34.1,57.5,33.9,57.6,33.7,57.6z M30.3,52l3.4,3.4l9.3-9.2
				l-3.4-3.4L30.3,52z"/>
		</g>
		<g>
			<path class="st2" d="M25,61.6c-0.2,0-0.5-0.1-0.6-0.3c-0.3-0.3-0.3-0.7-0.2-1l4-8.6c0.2-0.5,0.8-0.7,1.2-0.4
				c0.5,0.2,0.7,0.8,0.4,1.2l-3,6.4l6.4-2.9c0.5-0.2,1,0,1.2,0.5c0.2,0.5,0,1-0.5,1.2l-8.7,3.9C25.2,61.5,25.1,61.6,25,61.6z"/>
		</g>
		<g>
			<path class="st2" d="M27.6,60.4c-0.2,0-0.5-0.1-0.7-0.3L26,59.2c-0.4-0.4-0.4-0.9,0-1.3c0.4-0.4,0.9-0.3,1.3,0l0.9,0.9
				c0.4,0.4,0.4,0.9,0,1.3C28,60.3,27.8,60.4,27.6,60.4z"/>
		</g>
		<g>
			<g>
				<path class="st2" d="M50.3,47.7c-0.2,0-0.5-0.1-0.6-0.3c-0.4-0.4-0.4-0.9,0-1.3l7-7c0.4-0.4,0.6-0.9,0.6-1.5
					c0-0.5-0.2-1.1-0.6-1.4c-0.4-0.4-0.4-0.9,0-1.3c0.4-0.4,0.9-0.4,1.3,0c0.7,0.7,1.1,1.7,1.1,2.8c0,1-0.4,2-1.1,2.8l-7,7
					C50.8,47.6,50.6,47.7,50.3,47.7z"/>
			</g>
			<g>
				<path class="st2" d="M50.9,48.8c-0.7,0.7-1.9,0.7-2.6,0c-0.7-0.7-0.7-1.9,0-2.6c0.7-0.7,1.9-0.7,2.6,0
					C51.6,46.9,51.6,48.1,50.9,48.8z"/>
			</g>
		</g>
		<g>
			<path class="st2" d="M54.4,38.1c-0.2,0-0.5-0.1-0.6-0.3L48,32.1c-0.4-0.4-0.4-0.9,0-1.3c0.4-0.4,0.9-0.4,1.3,0l5.7,5.7
				c0.4,0.4,0.4,0.9,0,1.3C54.9,38,54.6,38.1,54.4,38.1z"/>
		</g>
	</g>
	<path class="st3" d="M50.9,24.8v-2c0-0.2-0.1-0.5-0.3-0.6L36.1,7.5c-0.2-0.2-0.4-0.3-0.6-0.3H9.8c-2.5,0-4.6,2-4.6,4.6v49.3
		c0,2.5,2,4.6,4.6,4.6h36.5c2.5,0,4.6-2,4.6-4.6v-9.3c-0.4,0.1-0.9,0.2-1.3,0.2c-0.2,0-0.3,0-0.5-0.1v9.2c0,1.5-1.2,2.7-2.7,2.7H9.8
		c-1.5,0-2.7-1.2-2.7-2.7V11.8c0-1.5,1.2-2.7,2.7-2.7H35l14.1,14.1v2.6C49.7,25.3,50.3,25,50.9,24.8z"/>
	<g class="st1">
		<path class="st2" d="M15.8,23.7h11.9c0.5,0,0.9-0.4,0.9-0.9c0-0.5-0.4-0.9-0.9-0.9H15.8c-0.5,0-0.9,0.4-0.9,0.9
			C14.9,23.3,15.3,23.7,15.8,23.7z"/>
		<path class="st2" d="M15.8,30.1h23.7c0.5,0,0.9-0.4,0.9-0.9c0-0.5-0.4-0.9-0.9-0.9H15.8c-0.5,0-0.9,0.4-0.9,0.9
			C14.9,29.7,15.3,30.1,15.8,30.1z"/>
		<path class="st2" d="M15.8,47.4c-0.5,0-0.9,0.4-0.9,0.9c0,0.5,0.4,0.9,0.9,0.9h10.8l1.8-1.8H15.8z"/>
		<path class="st2" d="M15.8,34.7c-0.5,0-0.9,0.4-0.9,0.9c0,0.5,0.4,0.9,0.9,0.9h22.4l1.8-1.8H15.8z"/>
		<path class="st2" d="M15.8,41c-0.5,0-0.9,0.4-0.9,0.9c0,0.5,0.4,0.9,0.9,0.9H33l1.8-1.8H15.8z"/>
	</g>
</g>
<g class="st0">
	<g id="User" class="st1">
		<g>
			<path class="st2" d="M31.4,44.5c9,0,16.3-9,16.3-20s-7.3-20-16.3-20c-4.4,0-8.6,2.1-11.7,6c-3,3.8-4.7,8.7-4.7,14
				C15.1,35.6,22.4,44.5,31.4,44.5z M31.4,8.2c7,0,12.7,7.3,12.7,16.3c0,9-5.7,16.3-12.7,16.3s-12.7-7.3-12.7-16.3
				C18.7,15.5,24.4,8.2,31.4,8.2z M44.2,40.9c-1,0-1.8,0.8-1.8,1.8c0,1,0.8,1.8,1.8,1.8c7,0,12.7,5.7,12.7,12.7c0,1-0.8,1.8-1.8,1.8
				H7.8c-1,0-1.8-0.8-1.8-1.8c0-7,5.7-12.7,12.7-12.7c1,0,1.8-0.8,1.8-1.8c0-1-0.8-1.8-1.8-1.8c-9,0-16.3,7.3-16.3,16.3
				c0,3,2.4,5.4,5.4,5.4h47.2c3,0,5.4-2.4,5.4-5.4C60.5,48.2,53.2,40.9,44.2,40.9z"/>
		</g>
	</g>
</g>
<g class="st0">
	<g id="Shape_76" class="st1">
		<g>
			<path class="st2" d="M29.3,44c7.7,0,14-7.7,14-17.1c0-9.4-6.3-17.1-14-17.1c-3.8,0-7.4,1.8-10.1,5.2c-2.6,3.2-4,7.4-4,11.9
				C15.3,36.3,21.6,44,29.3,44z M29.3,13.6c5.7,0,10.3,6,10.3,13.3c0,7.3-4.6,13.3-10.3,13.3S19,34.3,19,26.9
				C19,19.6,23.6,13.6,29.3,13.6z M41.1,42.1c-1,0-1.9,0.8-1.9,1.9s0.8,1.9,1.9,1.9c6.4,0,11.6,5.2,11.6,11.6c0,0.8-0.7,1.5-1.5,1.5
				H7.4c-0.8,0-1.5-0.7-1.5-1.5c0-6.4,5.2-11.6,11.6-11.6c1,0,1.9-0.8,1.9-1.9s-0.8-1.9-1.9-1.9C9.1,42.1,2.2,49,2.2,57.5
				c0,2.9,2.3,5.2,5.2,5.2h43.7c2.9,0,5.2-2.3,5.2-5.2C56.4,49,49.5,42.1,41.1,42.1z M30.6,7.8C32,7,33.4,6.6,34.9,6.6
				c5.7,0,10.3,6,10.3,13.3c0,1.3-0.1,2.6-0.4,3.8c-0.2,1,0.4,2,1.4,2.2c0.1,0,0.3,0,0.4,0c0.8,0,1.6-0.6,1.8-1.4
				c0.4-1.5,0.5-3.1,0.5-4.7c0-9.4-6.3-17.1-14-17.1c-2.1,0-4.2,0.6-6.1,1.7c-0.9,0.5-1.2,1.7-0.7,2.6C28.6,8,29.8,8.3,30.6,7.8z
				 M47,34.7c-1,0-1.9,0.8-1.9,1.9s0.8,1.9,1.9,1.9c6.4,0,11.2,5.3,11.2,11.7c0,0.2,0,0.4-0.1,0.6c-0.4,0.9,0,2,0.9,2.5
				c0.2,0.1,0.5,0.2,0.8,0.2c0.7,0,1.4-0.4,1.7-1.1c0.3-0.7,0.4-1.4,0.4-2.1C62,41.7,55.5,34.7,47,34.7z"/>
		</g>
	</g>
</g>
<g class="st0">
	<g id="Home" class="st1">
		<g>
			<path class="st2" d="M59.2,29.7L35.8,6.3c-2-2-5.6-2-7.6,0L4.9,29.7c-2.1,2.1-2.1,5.5,0,7.6c1,1,2.4,1.6,3.8,1.6
				c0.6,0,1.2-0.1,1.8-0.3v20.1c0,2,1.6,3.6,3.6,3.6h7.2c2,0,3.6-1.6,3.6-3.6V46.1h14.4v12.6c0,2,1.6,3.6,3.6,3.6H50
				c2,0,3.6-1.6,3.6-3.6V38.6c0.6,0.2,1.2,0.3,1.8,0.3c1.4,0,2.8-0.6,3.8-1.6C61.3,35.2,61.3,31.8,59.2,29.7z M30.7,8.8
				c0.3-0.3,0.8-0.5,1.3-0.5c0.5,0,0.9,0.2,1.3,0.5c0.7,0.7,0.7,1.8,0,2.5L32,12.7l-1.3-1.3C30,10.7,30,9.5,30.7,8.8z M9.9,34.8
				c-0.7,0.7-1.9,0.7-2.5,0c-0.7-0.7-0.7-1.8,0-2.5l19.8-19.8c0.3,0.5,0.6,1.1,1,1.5l1.3,1.3L9.9,34.8z M50,58.7h-7.2V46.1
				c0-2-1.6-3.6-3.6-3.6H24.8c-2,0-3.6,1.6-3.6,3.6v12.6h-7.2V35.7l18-18l18,18V58.7z M56.6,34.8c-0.7,0.7-1.9,0.7-2.5,0L34.6,15.2
				l1.3-1.3c0.4-0.4,0.8-1,1-1.5l19.8,19.8C57.3,32.9,57.3,34.1,56.6,34.8z M24.8,31.7c0,4,3.2,7.2,7.2,7.2c4,0,7.2-3.2,7.2-7.2
				S36,24.5,32,24.5C28.1,24.5,24.8,27.7,24.8,31.7z M35.6,31.7c0,2-1.6,3.6-3.6,3.6s-3.6-1.6-3.6-3.6c0-2,1.6-3.6,3.6-3.6
				C34,28.1,35.6,29.7,35.6,31.7z"/>
		</g>
	</g>
</g>
<g>
	<g id="Statics">
		<g>
			<path class="st2" d="M61.5,9.5c0.6-0.8,0.3-2-0.5-2.5c-0.8-0.6-2-0.3-2.5,0.5l-6.8,10.2c-0.3,0-0.6-0.1-0.9-0.1
				c-3,0-5.5,2.5-5.5,5.5c0,0.6,0.1,1.1,0.3,1.7l-6.5,8.3c-0.8-0.5-1.8-0.8-2.9-0.8c-3,0-5.4,2.3-5.5,5.3l-10.3,6
				c-1-1.3-2.6-2.1-4.3-2.1c-3,0-5.5,2.5-5.5,5.5c0,1.2,0.4,2.3,1,3.2L3.6,62.4c-0.6,0.8-0.3,2,0.5,2.5c0.3,0.2,0.7,0.3,1,0.3
				c0.6,0,1.2-0.3,1.5-0.8l8-12.2c0.5,0.1,0.9,0.2,1.4,0.2c3,0,5.4-2.3,5.5-5.3l10.3-6c1,1.3,2.6,2.1,4.3,2.1c3,0,5.5-2.5,5.5-5.5
				c0-0.6-0.1-1.1-0.3-1.7l6.5-8.3c0.8,0.5,1.8,0.8,2.9,0.8c3,0,5.5-2.5,5.5-5.5c0-1.4-0.5-2.7-1.4-3.6L61.5,9.5z M16.1,48.8
				c-1,0-1.8-0.8-1.8-1.8c0-1,0.8-1.8,1.8-1.8c1,0,1.8,0.8,1.8,1.8C17.9,48,17.1,48.8,16.1,48.8z M36.2,39.6c-1,0-1.8-0.8-1.8-1.8
				c0-1,0.8-1.8,1.8-1.8s1.8,0.8,1.8,1.8C38.1,38.8,37.2,39.6,36.2,39.6z M50.9,25c-1,0-1.8-0.8-1.8-1.8c0-1,0.8-1.8,1.8-1.8
				s1.8,0.8,1.8,1.8C52.7,24.2,51.9,25,50.9,25z M14.3,61.6c-1,0-1.8,0.8-1.8,1.8c0,1,0.8,1.8,1.8,1.8s1.8-0.8,1.8-1.8
				C16.1,62.4,15.3,61.6,14.3,61.6z M23.4,61.6c-1,0-1.8,0.8-1.8,1.8c0,1,0.8,1.8,1.8,1.8s1.8-0.8,1.8-1.8
				C25.2,62.4,24.4,61.6,23.4,61.6z M32.6,61.6c-1,0-1.8,0.8-1.8,1.8c0,1,0.8,1.8,1.8,1.8c1,0,1.8-0.8,1.8-1.8
				C34.4,62.4,33.6,61.6,32.6,61.6z M41.7,61.6c-1,0-1.8,0.8-1.8,1.8c0,1,0.8,1.8,1.8,1.8c1,0,1.8-0.8,1.8-1.8
				C43.5,62.4,42.7,61.6,41.7,61.6z M50.9,61.6c-1,0-1.8,0.8-1.8,1.8c0,1,0.8,1.8,1.8,1.8c1,0,1.8-0.8,1.8-1.8
				C52.7,62.4,51.9,61.6,50.9,61.6z M60,61.6c-1,0-1.8,0.8-1.8,1.8c0,1,0.8,1.8,1.8,1.8c1,0,1.8-0.8,1.8-1.8
				C61.8,62.4,61,61.6,60,61.6z M5.1,56.1c1,0,1.8-0.8,1.8-1.8c0-1-0.8-1.8-1.8-1.8s-1.8,0.8-1.8,1.8C3.3,55.3,4.1,56.1,5.1,56.1z
				 M5.1,47c1,0,1.8-0.8,1.8-1.8c0-1-0.8-1.8-1.8-1.8s-1.8,0.8-1.8,1.8C3.3,46.1,4.1,47,5.1,47z M5.1,37.8c1,0,1.8-0.8,1.8-1.8
				c0-1-0.8-1.8-1.8-1.8S3.3,35,3.3,36C3.3,37,4.1,37.8,5.1,37.8z M5.1,28.7c1,0,1.8-0.8,1.8-1.8c0-1-0.8-1.8-1.8-1.8
				s-1.8,0.8-1.8,1.8C3.3,27.8,4.1,28.7,5.1,28.7z M5.1,19.5c1,0,1.8-0.8,1.8-1.8c0-1-0.8-1.8-1.8-1.8s-1.8,0.8-1.8,1.8
				C3.3,18.7,4.1,19.5,5.1,19.5z M5.1,10.4c1,0,1.8-0.8,1.8-1.8c0-1-0.8-1.8-1.8-1.8S3.3,7.5,3.3,8.5C3.3,9.6,4.1,10.4,5.1,10.4z"/>
		</g>
	</g>
</g>
<g class="st0">
	<g id="Umbrella" class="st1">
		<g>
			<path class="st2" d="M60.4,35.9c-0.6-14.8-12.3-26.7-27-27.7V6.4c0-1-0.8-1.8-1.8-1.8c-1,0-1.8,0.8-1.8,1.8v1.9
				C15.1,9.2,3.4,21.1,2.8,35.9c0,0.4-0.1,0.7-0.1,1.1c0,1,0.8,1.8,1.8,1.8S6.4,38,6.4,37c0-4,3.2-7.2,7.2-7.2s7.2,3.2,7.2,7.2
				c0,1,0.8,1.8,1.8,1.8c1,0,1.8-0.8,1.8-1.8c0-3.3,2.3-6.1,5.4-7v23.2c0,3-2.4,5.4-5.4,5.4S19,56.3,19,53.3c0-1-0.8-1.8-1.8-1.8
				s-1.8,0.8-1.8,1.8c0,5,4,9,9,9s9-4,9-9V30.1c3.1,0.8,5.4,3.6,5.4,7c0,1,0.8,1.8,1.8,1.8c1,0,1.8-0.8,1.8-1.8c0-4,3.2-7.2,7.2-7.2
				s7.2,3.2,7.2,7.2c0,1,0.8,1.8,1.8,1.8c1,0,1.8-0.8,1.8-1.8C60.5,36.7,60.4,36.3,60.4,35.9z M49.6,26.2c-3.8,0-7.1,1.9-9,4.9
				c-1.9-2.9-5.3-4.9-9-4.9s-7.1,1.9-9,4.9c-1.9-2.9-5.3-4.9-9-4.9c-2,0-3.8,0.5-5.4,1.5c3.7-9.3,12.8-15.9,23.4-15.9
				S51.3,18.4,55,27.7C53.4,26.8,51.6,26.2,49.6,26.2z"/>
		</g>
	</g>
</g>
<g class="st0">
	<g class="st1">
		<g>
			<path class="st2" d="M53.7,5.1H11.4c-1.8,0-3.3,1.5-3.3,3.3v49.3c0,1.8,1.5,3.3,3.3,3.3h42.3c1.8,0,3.3-1.5,3.3-3.3V8.4
				C57,6.6,55.5,5.1,53.7,5.1z M10.7,8.4c0-0.4,0.3-0.7,0.7-0.7h42.3c0.4,0,0.7,0.3,0.7,0.7v11.5H10.7V8.4z M23.5,58.4H11.4
				c-0.4,0-0.7-0.3-0.7-0.7v-16h12.8V58.4z M23.5,39.1H10.7V22.5h12.8V39.1z M38.9,58.4H26.2V41.8h12.8V58.4z M38.9,39.1H26.2V22.5
				h12.8V39.1z M54.4,57.7c0,0.4-0.3,0.7-0.7,0.7H41.6V22.5h12.8V57.7z"/>
		</g>
	</g>
	<g class="st1">
		<g>
			<path class="st2" d="M20.4,29.5h-2v-2c0-0.7-0.6-1.3-1.3-1.3c-0.7,0-1.3,0.6-1.3,1.3v2h-2c-0.7,0-1.3,0.6-1.3,1.3
				c0,0.7,0.6,1.3,1.3,1.3h2v2c0,0.7,0.6,1.3,1.3,1.3c0.7,0,1.3-0.6,1.3-1.3v-2h2c0.7,0,1.3-0.6,1.3-1.3
				C21.7,30.1,21.1,29.5,20.4,29.5z"/>
		</g>
	</g>
	<g class="st1">
		<g>
			<path class="st2" d="M35.9,29.5h-6.7c-0.7,0-1.3,0.6-1.3,1.3c0,0.7,0.6,1.3,1.3,1.3h6.7c0.7,0,1.3-0.6,1.3-1.3
				C37.2,30.1,36.6,29.5,35.9,29.5z"/>
		</g>
	</g>
	<g class="st1">
		<g>
			<path class="st2" d="M19,50.1l1.6-1.6c0.5-0.5,0.5-1.4,0-1.9c-0.5-0.5-1.4-0.5-1.9,0l-1.6,1.6l-1.6-1.6c-0.5-0.5-1.4-0.5-1.9,0
				c-0.5,0.5-0.5,1.4,0,1.9l1.6,1.6l-1.6,1.6c-0.5,0.5-0.5,1.4,0,1.9c0.3,0.3,0.6,0.4,0.9,0.4c0.3,0,0.7-0.1,0.9-0.4l1.6-1.6
				l1.6,1.6c0.3,0.3,0.6,0.4,0.9,0.4c0.3,0,0.7-0.1,0.9-0.4c0.5-0.5,0.5-1.4,0-1.9L19,50.1z"/>
		</g>
	</g>
	<g class="st1">
		<g>
			<path class="st2" d="M36,46.6c-0.5-0.5-1.4-0.5-1.9,0l-5.1,5.1c-0.5,0.5-0.5,1.4,0,1.9c0.3,0.3,0.6,0.4,0.9,0.4
				c0.3,0,0.7-0.1,0.9-0.4l5.1-5.1C36.5,48,36.5,47.1,36,46.6z"/>
		</g>
	</g>
	<g class="st1">
		<g>
			<circle class="st2" cx="30" cy="47.6" r="1.1"/>
		</g>
	</g>
	<g class="st1">
		<g>
			<circle class="st2" cx="35.1" cy="52.6" r="1.1"/>
		</g>
	</g>
	<g class="st1">
		<g>
			<path class="st2" d="M51.3,36.8h-6.8c-0.7,0-1.3,0.6-1.3,1.3c0,0.7,0.6,1.3,1.3,1.3h6.8c0.7,0,1.3-0.6,1.3-1.3
				C52.6,37.4,52.1,36.8,51.3,36.8z"/>
		</g>
	</g>
	<g class="st1">
		<g>
			<path class="st2" d="M51.3,41.5h-6.8c-0.7,0-1.3,0.6-1.3,1.3c0,0.7,0.6,1.3,1.3,1.3h6.8c0.7,0,1.3-0.6,1.3-1.3
				C52.6,42,52.1,41.5,51.3,41.5z"/>
		</g>
	</g>
</g>
<g class="st0">
	<line class="st4" x1="26.4" y1="56" x2="26.4" y2="33.7"/>
	<polyline class="st4" points="7.7,31.2 2.7,46 2.7,47.3 	"/>
	<polyline class="st4" points="16.4,47.3 16.4,46 10.2,31.2 	"/>
	<path class="st4" d="M1.5,47.3v1.2c1.2,3.2,4.4,5,8.1,5s6.8-1.7,8.1-5v-1.2H1.5z"/>
	<polyline class="st4" points="42.5,31.2 37.5,46 37.5,47.3 	"/>
	<polyline class="st4" points="51.2,47.3 51.2,46 45,31.2 	"/>
	<path class="st4" d="M36.3,47.3v1.2c1.2,3.2,4.4,5,8.1,5s6.8-1.7,8.1-5v-1.2H36.3z"/>
	<path class="st4" d="M23.9,18.8c0-1.4,1.1-2.5,2.5-2.5c1.4,0,2.5,1.1,2.5,2.5"/>
	<path class="st4" d="M45,25c-1.6,0-4.6,1-8.7-1.2c-4-2.2-7.2-2.8-9.9,0c-2.8-2.8-6-2.2-9.9,0C12.3,26,9.3,25,7.7,25
		c-2,0-3.7,1-3.7,3.7c0,0.9,1.6,2.5,3.7,2.5c1.5,0,2.3-0.3,4.9-1c1.6-0.4,5.1-1.5,7.6-1.5s3.8,2.5,6.2,2.5s3.7-2.5,6.2-2.5
		c2.5,0,6,1,7.6,1.5c2.6,0.7,3.4,1,4.9,1c2.2,0,3.7-1.6,3.7-2.5C48.7,26,47,25,45,25z"/>
	<path class="st4" d="M36.3,62.3v-2.5c0-2.1-1.7-3.7-3.7-3.7H20.1c-2.1,0-3.7,1.7-3.7,3.7v2.5H36.3z"/>
	<path class="st4" d="M17.7,18.8V7.6c0-1.4,1.1-2.5,2.5-2.5H50l8.7,8.7v46c0,1.4-1.1,2.5-2.5,2.5H40"/>
	<polyline class="st4" points="54.9,15 48.7,15 48.7,8.8 	"/>
</g>
<g id="graduate" class="st0">
	<path class="st4" d="M30.1,13.9c-6.2,0-11.5,2.3-11.5,3.5v6.2c0-1,4.2-3.2,9.2-3.5l2.3,0.8l2.3-0.8c4.9,0.3,9.2,2.4,9.2,3.5v-6.2
		C41.6,16.2,36.3,13.9,30.1,13.9z"/>
	<line class="st4" x1="13.3" y1="15.6" x2="13.3" y2="22.7"/>
	<path class="st4" d="M8,33.3c3.5,0,3.5-3.5,3.5-3.5v-4.4c0-1,0.8-2.6,1.8-2.6c1,0,1.8,1.7,1.8,2.6v15"/>
	<path class="st5" d="M15.1,25.4c0,1,0,1.8-1.8,1.8s-1.8-0.9-1.8-1.8c0-1,0.8-2.6,1.8-2.6C14.3,22.7,15.1,24.4,15.1,25.4z"/>
	<polyline class="st4" points="18.6,16.9 9.8,13.9 9.8,13.9 30.1,6.8 50.4,13.9 50.4,13.9 41.6,16.9 	"/>
	<path class="st4" d="M41.6,23.6v7.9c0,7.3-5.1,13.2-11.5,13.2c-6.3,0-11.5-5.9-11.5-13.2v-7.9"/>
	<line class="st4" x1="38.1" y1="41.2" x2="38.1" y2="47.4"/>
	<path class="st4" d="M40.7,49.2l10.6,3.5c2.6,0.9,6.2,4.1,6.2,8.8"/>
	<line class="st4" x1="22.2" y1="41.2" x2="22.2" y2="47.4"/>
	<path class="st4" d="M19.5,49.2L8.9,52.7c-2.6,0.9-6.2,4.1-6.2,8.8"/>
	<path class="st4" d="M30.1,51.8c-4.4,0-7.9-2.4-7.9-5.3l-2.6,2.6c1.6,3.4,5.6,6.2,10.6,6.2c5,0,9-2.8,10.6-6.2l-2.6-2.6
		C38.1,49.5,34.5,51.8,30.1,51.8z"/>
	<path class="st4" d="M9.8,38.6c0,0,1.8-0.9,1.8-2.6"/>
</g>
</svg>
