<?xml version="1.0" encoding="utf-8"?>
<!-- Generator: Adobe Illustrator 22.1.0, SVG Export Plug-In . SVG Version: 6.00 Build 0)  -->
<svg version="1.1" id="Calque_1" xmlns="http://www.w3.org/2000/svg" xmlns:xlink="http://www.w3.org/1999/xlink" x="0px" y="0px"
	 viewBox="0 0 160 109" style="enable-background:new 0 0 160 109;" xml:space="preserve">
<style type="text/css">
	.st0{fill:#FFFFFF;}
</style>
<g>
	<path class="st0" d="M131.1,31.6h-20.7c-0.7,0-1.4,0.6-1.4,1.4s0.6,1.4,1.4,1.4h20.7c0.7,0,1.4-0.6,1.4-1.4
		C132.4,32.2,131.9,31.6,131.1,31.6z"/>
	<path class="st0" d="M122,39.3h-11.6c-0.7,0-1.4,0.6-1.4,1.4c0,0.7,0.6,1.4,1.4,1.4H122c0.7,0,1.4-0.6,1.4-1.4
		C123.4,40,122.8,39.3,122,39.3z"/>
	<path class="st0" d="M140.7,31.3c-2.5-9-10.6-15.2-20-15.2c-1.8,0-3.6,0.2-5.4,0.7c-10.9,3-17.5,14.4-14.5,25.4c1,3.6,3,7,5.7,9.6
		l-0.6,8.8c0,0.6,0.2,1,0.6,1.3c0.2,0.1,0.5,0.2,0.6,0.2c0.2,0,0.6-0.1,0.7-0.2l7.2-4.9c3.6,1,7.4,1,11.2,0.1
		C137.3,53.8,143.7,42.4,140.7,31.3z M125.5,54.3c-3.4,0.9-7,0.8-10.3-0.2c-0.3-0.1-0.8-0.1-1.1,0.2l-5.5,3.8l0.6-6.6
		c0-0.5-0.1-0.8-0.5-1c-2.6-2.3-4.5-5.3-5.4-8.8c-2.6-9.7,3.1-19.6,12.8-22.2c1.6-0.5,3.2-0.6,4.8-0.6c8.1,0,15.3,5.5,17.4,13.3
		C140.9,41.7,135.1,51.6,125.5,54.3z"/>
</g>
<g id="stealth">
	<path class="st0" d="M53.8,66.7c-0.1,0-0.2,0-0.2,0L44,65.4c-1-0.1-1.7-1-1.5-1.9c0.1-1,1-1.7,1.9-1.5l9.6,1.3c1,0.1,1.7,1,1.5,1.9
		C55.5,66.1,54.7,66.7,53.8,66.7z"/>
	<path class="st0" d="M68.6,66.7c-0.9,0-1.6-0.6-1.8-1.5c-0.1-1,0.6-1.8,1.5-1.9l9.6-1.3c1-0.1,1.8,0.6,1.9,1.5
		c0.1,1-0.6,1.8-1.5,1.9l-9.6,1.3C68.8,66.7,68.8,66.7,68.6,66.7z"/>
	<path class="st0" d="M61.8,48.3C61.8,48.3,61.7,48.3,61.8,48.3h-0.2h-0.1h-0.1c-17.6,0-27.6-3-30.2-4c-0.7-0.2-1.2-0.9-1.2-1.7
		c0-6.7,9.6-31.1,19.2-31.1c5.3,0,7.4,2.2,9,3.7c1.1,1.1,1.8,1.8,3.2,1.8c1.5,0,2.2-0.6,3.2-1.8c1.6-1.6,3.7-3.7,9-3.7
		c9.7,0,19.2,24.3,19.2,31.1c0,0.8-0.5,1.4-1.1,1.7C84.6,46.8,73.5,48.2,61.8,48.3C61.9,48.3,61.8,48.3,61.8,48.3z M61.7,44.8
		L61.7,44.8c0.1,0,0.1,0,0.2,0c14.7,0,23.8-2.2,27.6-3.4c-1-7.7-9.7-26.2-15.6-26.2c-3.8,0-5.1,1.4-6.5,2.7
		c-1.4,1.4-2.7,2.7-5.7,2.7s-4.4-1.5-5.7-2.7c-1.4-1.4-2.6-2.6-6.5-2.6c-6,0-14.6,18.7-15.6,26.2C39.3,43.2,49,44.8,61.7,44.8
		C61.6,44.8,61.6,44.8,61.7,44.8L61.7,44.8L61.7,44.8z"/>
	<path class="st0" d="M91.3,35c0.5,1.5,0.9,2.8,1.1,4.1c5.1,1.8,8,3.9,8,5.7c0,4.1-14.9,9.8-39.2,9.8c-24.3,0-39.2-5.7-39.2-9.8
		c0-1.8,3-4,8.5-5.8c0.2-1.3,0.7-2.6,1.1-4.1c-7.8,2.2-13.2,5.6-13.2,9.9c0,8.8,21.5,13.3,42.7,13.3s42.7-4.6,42.7-13.3
		C104,40.5,99,37.3,91.3,35z"/>
	<path class="st0" d="M86.8,55.6c-0.1,4.3-0.4,9.7-1.2,12.9c-4.7,17.6-12.1,25.4-24.1,25.4c-12,0-19.5-7.9-24.1-25.4
		c-0.7-2.8-1-8.1-1.1-12.8c-1.3-0.2-2.4-0.6-3.5-0.8c0.1,5,0.3,11.2,1.3,14.5c5,19.1,13.8,28,27.5,28l0,0c13.7,0,22.5-8.9,27.5-28
		c1-3.8,1.3-10.1,1.4-14.7C89.1,55.1,88,55.4,86.8,55.6z"/>
</g>
</svg>
