<?xml version="1.0" encoding="utf-8"?>
<!-- Generator: Adobe Illustrator 22.1.0, SVG Export Plug-In . SVG Version: 6.00 Build 0)  -->
<svg version="1.1" id="Calque_1" xmlns="http://www.w3.org/2000/svg" xmlns:xlink="http://www.w3.org/1999/xlink" x="0px" y="0px"
	 viewBox="0 0 160 109" style="enable-background:new 0 0 160 109;" xml:space="preserve">
<style type="text/css">
	.st0{fill:#FFFFFF;}
</style>
<g id="influence_1_">
	<path class="st0" d="M111.3,47.6c0-2.5-1.9-4.6-4.3-4.6H92.4c1.6-5.4,1.4-11.2,1.4-11.6c-0.5-3.9-1.6-6.4-3.4-8
		c-1.5-1.3-2.8-1.4-3.6-1.3c-1.8,0.3-2.6,1.9-2.7,2.1c-0.1,0.3-0.2,0.6-0.1,0.9c0.3,1.4,0.8,5.7,0.1,8.1c-0.7,2.5-5.4,9.7-7.2,12.3
		c-0.1,0.1-0.1,0.1-0.1,0.3c-0.4,0.7-3.2,2.7-4.8,3.5h-4.4c-0.8,0-1.4,0.6-1.4,1.4c0,0.8,0.6,1.4,1.4,1.4h4.7c0.2,0,0.4,0,0.6-0.1
		c0.5-0.2,5.4-3,6.4-4.9c0.9-1.4,6.6-9.8,7.5-13c0.8-2.9,0.3-7.2,0-8.7c0.1-0.1,0.3-0.3,0.5-0.3c0.3-0.1,0.7,0.2,1.2,0.6
		c1.2,1.1,2,3.1,2.5,6.1c0,0.1,0.3,6.9-1.9,12.2c-0.2,0.4-0.1,0.9,0.1,1.3c0.3,0.4,0.7,0.6,1.2,0.6H107c0.8,0,1.5,0.8,1.5,1.8
		c0,1-0.7,1.8-1.5,1.8h-2.1c-0.8,0-1.4,0.6-1.4,1.4c0,0.8,0.6,1.4,1.4,1.4c0.8,0,1.5,0.8,1.5,1.8c0,1-0.7,1.8-1.5,1.8h-1.5
		c-0.8,0-1.4,0.6-1.4,1.4c0,0.8,0.6,1.4,1.4,1.4c0.8,0,1.5,0.8,1.5,1.8c0,1-0.7,1.8-1.5,1.8h-1.5c-0.8,0-1.4,0.6-1.4,1.4
		c0,0.8,0.6,1.4,1.4,1.4c0.8,0,1.5,0.8,1.5,1.8c0,0.9-0.6,1.7-1.4,1.8c-0.1,0-0.1,0-0.2,0c-5.8,0.3-20.9,0.8-24.7-1.1
		c-1.4-0.7-5.9-0.7-7.8-0.7c-0.8,0-1.4,0.6-1.4,1.4c0,0.8,0.6,1.4,1.4,1.4c2.6,0,5.9,0.1,6.5,0.4c2.8,1.4,9.4,1.7,15.4,1.7
		c5.3,0,10-0.3,11-0.3c0.1,0,0.2,0,0.3-0.1c2.1-0.3,3.6-2.2,3.6-4.5c0-0.9-0.2-1.7-0.6-2.4c1.3-0.8,2.1-2.3,2.1-4
		c0-0.9-0.2-1.7-0.6-2.4c1.3-0.8,2.1-2.3,2.1-4c0-0.8-0.2-1.5-0.5-2.1C110.2,51.1,111.3,49.5,111.3,47.6z"/>
	<path class="st0" d="M121.6,68.7c3.9-6.2,5.9-13.3,5.9-20.5c0-21.4-17.4-38.8-38.8-38.8C67.4,9.4,50,26.8,50,48.2
		s17.4,38.8,38.8,38.8c7.3,0,14.4-2,20.5-5.9l16.4,5.8c0.2,0.1,0.3,0.1,0.5,0.1c0.4,0,0.7-0.1,1-0.4c0.4-0.4,0.5-1,0.3-1.5
		L121.6,68.7z M109.6,78.2c-0.4-0.1-0.9-0.1-1.2,0.1c-5.8,3.8-12.6,5.8-19.6,5.8c-19.8,0-36-16.1-36-36c0-19.8,16.1-36,36-36
		c19.8,0,36,16.1,36,36c0,7-2,13.7-5.8,19.6c-0.2,0.4-0.3,0.8-0.1,1.2l5.1,14.2L109.6,78.2z"/>
	<path class="st0" d="M88.8,91.2c-0.2,0-0.5,0-0.7,0c-5,3.6-11,5.7-17.6,5.7c-5.9,0-11.6-1.7-16.5-4.9c-0.2-0.1-0.5-0.2-0.8-0.2
		c-0.2,0-0.3,0-0.5,0.1L41,95.9l4.1-11.7c0.1-0.4,0.1-0.9-0.1-1.2c-3.2-4.9-4.9-10.6-4.9-16.5c0-6.6,2.1-12.6,5.7-17.6
		c0-0.2,0-0.5,0-0.7c0-1.3,0.1-2.6,0.2-3.9c-5.4,5.9-8.7,13.7-8.7,22.3c0,6.2,1.7,12.2,5,17.5l-4.9,13.8c-0.2,0.5-0.1,1.1,0.3,1.5
		c0.3,0.3,0.6,0.4,1,0.4c0.2,0,0.3,0,0.5-0.1L53,94.7c5.3,3.3,11.3,5,17.5,5c8.6,0,16.4-3.3,22.3-8.7C91.4,91.1,90.1,91.2,88.8,91.2
		z"/>
</g>
</svg>
