<?xml version="1.0" encoding="utf-8"?>
<!-- Generator: Adobe Illustrator 22.1.0, SVG Export Plug-In . SVG Version: 6.00 Build 0)  -->
<svg version="1.1" id="Calque_1" xmlns="http://www.w3.org/2000/svg" xmlns:xlink="http://www.w3.org/1999/xlink" x="0px" y="0px"
	 viewBox="0 0 125 86" style="enable-background:new 0 0 125 86;" xml:space="preserve">
<style type="text/css">
	.st0{fill:#F48B43;}
</style>
<g id="stealth">
	<path class="st0" d="M55.7,52.8c-0.1,0-0.1,0-0.2,0l-7.8-1c-0.8-0.1-1.4-0.9-1.2-1.6c0.1-0.8,0.9-1.4,1.6-1.2l7.8,1
		c0.8,0.1,1.4,0.9,1.2,1.6C57.1,52.3,56.4,52.8,55.7,52.8z"/>
	<path class="st0" d="M67.7,52.8c-0.7,0-1.3-0.5-1.4-1.2c-0.1-0.8,0.4-1.5,1.2-1.6l7.8-1c0.8-0.1,1.5,0.4,1.6,1.2
		c0.1,0.8-0.4,1.5-1.2,1.6l-7.8,1C67.9,52.8,67.8,52.8,67.7,52.8z"/>
	<path class="st0" d="M62.2,37.8C62.2,37.8,62.1,37.8,62.2,37.8H62H62h-0.1c-14.4,0-22.5-2.5-24.7-3.2c-0.6-0.2-0.9-0.7-0.9-1.4
		c0-5.5,7.8-25.4,15.7-25.4c4.3,0,6.1,1.7,7.4,3c0.9,0.9,1.4,1.4,2.6,1.4c1.2,0,1.7-0.5,2.6-1.4c1.3-1.3,3-3,7.4-3
		c7.9,0,15.7,19.8,15.7,25.4c0,0.6-0.4,1.2-0.9,1.4C80.8,36.6,71.7,37.7,62.2,37.8C62.3,37.8,62.2,37.8,62.2,37.8z M62,34.9L62,34.9
		c0.1,0,0.1,0,0.1,0c12,0,19.4-1.8,22.5-2.7c-0.8-6.3-7.9-21.4-12.7-21.4c-3.1,0-4.2,1.1-5.3,2.2c-1.1,1.1-2.2,2.2-4.7,2.2
		c-2.5,0-3.6-1.2-4.7-2.2c-1.2-1.2-2.2-2.2-5.3-2.2C47,10.8,40,26.1,39.2,32.3C43.8,33.6,51.7,34.9,62,34.9C62,34.9,62,34.9,62,34.9
		L62,34.9L62,34.9z"/>
	<path class="st0" d="M86.3,27c0.4,1.2,0.7,2.3,0.9,3.3c4.2,1.4,6.5,3.2,6.5,4.6c0,3.3-12.2,8-32,8c-19.8,0-32-4.6-32-8
		c0-1.5,2.5-3.2,7-4.8c0.2-1,0.6-2.1,0.9-3.3c-6.5,1.8-10.8,4.5-10.8,8.1c0,7.1,17.5,10.9,34.8,10.9s34.8-3.8,34.8-10.9
		C96.6,31.5,92.5,28.8,86.3,27z"/>
	<path class="st0" d="M82.5,43.8c-0.1,3.5-0.3,7.9-0.9,10.5C77.8,68.7,71.7,75,62,75c-9.8,0-15.9-6.4-19.6-20.7
		c-0.6-2.3-0.9-6.6-0.9-10.4c-1-0.2-1.9-0.4-2.9-0.6c0.1,4.1,0.3,9.1,1,11.8C43.6,70.7,50.8,78,62,78l0,0c11.2,0,18.3-7.3,22.4-22.9
		c0.8-3.1,1-8.2,1.1-12C84.5,43.4,83.5,43.6,82.5,43.8z"/>
</g>
</svg>
