<?xml version="1.0" encoding="utf-8"?>
<!-- Generator: Adobe Illustrator 22.1.0, SVG Export Plug-In . SVG Version: 6.00 Build 0)  -->
<svg version="1.1" id="Calque_1" xmlns="http://www.w3.org/2000/svg" xmlns:xlink="http://www.w3.org/1999/xlink" x="0px" y="0px"
	 viewBox="0 0 125 86" style="enable-background:new 0 0 125 86;" xml:space="preserve">
<style type="text/css">
	.st0{fill:#F48B43;}
</style>
<g id="video_2_">
	<g>
		<path class="st0" d="M69.3,73.4c0,0.4,0.2,0.7,0.4,1.1H54.2c0.2-0.2,0.4-0.7,0.4-1.1v-2.2h-2.2v2c-0.2,0.2-1.3,0.9-2.4,1.3
			c-0.4,0.2-0.9,0.7-0.7,1.1c0,0.4,0.4,0.9,1.1,0.9h23.2l0,0c0.7,0,1.1-0.4,1.1-1.1c0-0.4-0.4-0.9-0.9-1.1c-1.1-0.4-2.2-0.9-2.4-1.1
			V71h-2.2L69.3,73.4L69.3,73.4z"/>
		<path class="st0" d="M93.4,63.8c0,1.8-1.3,3.1-3.1,3.1h-57c-1.8,0-3.1-1.3-3.1-3.1V19.5c0-1.8,1.3-3.1,3.1-3.1h22.3v-2.2H33.3
			c-2.8,0-5.3,2.4-5.3,5.3v44.3c0,2.8,2.4,5.3,5.3,5.3h57c2.8,0,5.3-2.4,5.3-5.3V35.5c-0.7,0.4-1.3,0.9-2.2,1.1V63.8z"/>
		<path class="st0" d="M88.1,54.4c0,1.3-1.1,2.4-2.4,2.4H37.9c-1.3,0-2.4-1.1-2.4-2.4V24.1c0-1.3,1.1-2.4,2.4-2.4h17.7v-2.2H37.9
			c-2.6,0-4.6,2-4.6,4.6v30.2c0,2.6,2,4.6,4.6,4.6h47.8c2.6,0,4.6-2,4.6-4.6V36.8h-2.2V54.4z"/>
	</g>
	<g>
		<g>
			<path class="st0" d="M71.2,21.3c0-1.1-0.9-2.2-2.2-2.2c-1.1,0-2.2,0.9-2.2,2.2c0,1.1,0.9,2.2,2.2,2.2
				C70.4,23.2,71.2,22.4,71.2,21.3z"/>
			<path class="st0" d="M79.3,21.3c0-1.1-0.9-2.2-2.2-2.2c-1.1,0-2.2,0.9-2.2,2.2s0.9,2.2,2.2,2.2C78.5,23.2,79.3,22.4,79.3,21.3z"
				/>
			<path class="st0" d="M87.2,21.3c0-1.1-0.9-2.2-2.2-2.2c-1.1,0-2.2,0.9-2.2,2.2c0,1.1,0.9,2.2,2.2,2.2
				C86.1,23.2,87.2,22.4,87.2,21.3z"/>
			<path class="st0" d="M91.4,9h-28c-2.4,0-4.2,2-4.2,4.2v9.4c0.7,0.4,1.5,0.7,2.2,1.3V13.4c0-1.1,0.9-2.2,2.2-2.2h28
				c1.1,0,2.2,0.9,2.2,2.2v16.2c0,1.1-0.9,2.2-2.2,2.2H77.2c-0.2,0-0.4,0-0.7,0.2l-7,6.4v-5.7c0-0.7-0.4-1.1-1.1-1.1h-2.2
				c0,0.4,0.2,1.1,0.2,1.5c0,0.2,0,0.2,0,0.4h1.1v7c0,0.4,0.2,0.9,0.7,0.9c0.2,0,0.2,0,0.4,0c0.2,0,0.4,0,0.7-0.2l8.5-7.7h14
				c2.4,0,4.2-2,4.2-4.2V13.2C95.6,11,93.6,9,91.4,9z"/>
		</g>
		<g>
			<path class="st0" d="M72.3,57.4c0-0.4-0.7-8.5-5.5-11.4L61.4,43c-0.4-0.2-0.9-0.2-1.1,0c-3.5,2.4-8.1,2.4-11.6,0
				c-0.2-0.2-0.7-0.2-1.1,0L41.9,46c-4.8,2.8-5.5,11.2-5.5,11.4v1.1l2.2,0.2v-1.1c0,0,0.7-7.4,4.4-9.6l5-2.6c3.9,2.4,9,2.4,12.9,0
				l5,2.6c3.7,2.4,4.4,9.6,4.4,9.9V59l2.2-0.2L72.3,57.4z"/>
			<path class="st0" d="M54.2,41.6c4.6,0,8.3-3.7,8.3-8.3S58.8,25,54.2,25s-8.3,3.7-8.3,8.3S49.6,41.6,54.2,41.6z M54.2,27
				c3.5,0,6.4,2.8,6.4,6.4c0,3.5-2.8,6.4-6.4,6.4c-3.5,0-6.4-2.8-6.4-6.4C48,29.8,50.9,27,54.2,27z"/>
		</g>
	</g>
</g>
</svg>
